<?xml version="1.0" encoding="UTF-8"?>
<svg version="1.1" xmlns="http://www.w3.org/2000/svg" width="377" height="366">
<path d="M0 0 C124.41 0 248.82 0 377 0 C377 120.78 377 241.56 377 366 C252.59 366 128.18 366 0 366 C0 245.22 0 124.44 0 0 Z " fill="#FCFCFC" transform="translate(0,0)"/>
<path d="M0 0 C3.13980958 1.28624598 4.98838145 2.9414874 7.3828125 5.33984375 C8.18460938 6.11972656 8.98640625 6.89960938 9.8125 7.703125 C11.5078125 10.02734375 11.5078125 10.02734375 11.265625 12.3203125 C10.89050781 13.16529297 10.89050781 13.16529297 10.5078125 14.02734375 C9.1878125 14.35734375 7.8678125 14.68734375 6.5078125 15.02734375 C5.8478125 13.70734375 5.1878125 12.38734375 4.5078125 11.02734375 C3.8478125 11.02734375 3.1878125 11.02734375 2.5078125 11.02734375 C2.5078125 17.95734375 2.5078125 24.88734375 2.5078125 32.02734375 C5.88 31.31578125 5.88 31.31578125 9.3203125 30.58984375 C20.43225113 28.33865618 31.16863388 27.87836184 42.5078125 28.02734375 C43.0028125 30.00734375 43.0028125 30.00734375 43.5078125 32.02734375 C42.35671997 32.16197021 42.35671997 32.16197021 41.18237305 32.29931641 C18.87644423 34.95939821 -2.82811657 38.95668673 -24.4921875 45.02734375 C-24.03199219 45.6217627 -23.57179688 46.21618164 -23.09765625 46.82861328 C-18.4921875 52.77734375 -18.4921875 52.77734375 -18.4921875 55.02734375 C-17.91476807 54.75583496 -17.33734863 54.48432617 -16.74243164 54.20458984 C-0.09228077 46.41132323 16.05255323 39.98422673 33.8828125 35.46484375 C34.98407471 35.17641602 36.08533691 34.88798828 37.2199707 34.59082031 C38.25081787 34.34170898 39.28166504 34.09259766 40.34375 33.8359375 C41.26720215 33.60704834 42.1906543 33.37815918 43.14208984 33.14233398 C45.5078125 33.02734375 45.5078125 33.02734375 47.33056641 34.35180664 C48.5078125 36.02734375 48.5078125 36.02734375 48.5078125 38.02734375 C47.72245117 38.24350342 46.93708984 38.45966309 46.12792969 38.68237305 C43.15156096 39.50561932 40.17726292 40.33590514 37.20410156 41.1706543 C35.30940772 41.70041754 33.41254089 42.22238975 31.515625 42.74414062 C19.53160253 46.11858906 8.48980052 50.92244047 -2.68359375 56.33984375 C-3.38355469 56.675 -4.08351562 57.01015625 -4.8046875 57.35546875 C-5.41957031 57.65356445 -6.03445312 57.95166016 -6.66796875 58.25878906 C-8.58538015 59.06660639 -10.46426471 59.57408286 -12.4921875 60.02734375 C-11.7703125 60.74921875 -11.0484375 61.47109375 -10.3046875 62.21484375 C-8.47028914 64.04924211 -6.69446669 65.94472268 -4.9921875 67.90234375 C-2.75210668 70.29995203 -2.75210668 70.29995203 -0.2421875 69.90625 C3.19788167 68.80679608 5.99761261 67.0297049 9.0078125 65.08984375 C25.4715594 54.91730614 43.09540238 47.83205939 61.5078125 42.02734375 C62.3028418 41.7761377 63.09787109 41.52493164 63.91699219 41.26611328 C76.26551431 37.43939922 88.77115206 35.20386167 101.5078125 33.02734375 C90.2878125 33.02734375 79.0678125 33.02734375 67.5078125 33.02734375 C69.5078125 28.02734375 69.5078125 28.02734375 71.5078125 26.02734375 C73.93032154 25.81776282 76.20975507 25.74481762 78.6328125 25.77734375 C79.38143555 25.78483643 80.13005859 25.7923291 80.90136719 25.80004883 C101.53184506 26.17397102 124.80901172 27.46107682 144.5078125 34.02734375 C144.64445313 33.29902344 144.78109375 32.57070312 144.921875 31.8203125 C145.45732281 29.26801127 146.11693857 26.83099284 146.8828125 24.33984375 C147.14578125 23.47617188 147.40875 22.6125 147.6796875 21.72265625 C148.23177083 19.92578125 148.78385417 18.12890625 149.3359375 16.33203125 C149.59890625 15.46835938 149.861875 14.6046875 150.1328125 13.71484375 C150.37257813 12.93496094 150.61234375 12.15507812 150.859375 11.3515625 C151.53186346 8.941137 152.01703636 6.48122447 152.5078125 4.02734375 C156.7978125 4.02734375 161.0878125 4.02734375 165.5078125 4.02734375 C164.30294493 31.1368641 152.05448357 53.77921008 133.5078125 73.02734375 C132.91355469 73.68476563 132.31929687 74.3421875 131.70703125 75.01953125 C116.05880102 91.8714715 92.75437073 101.09373168 70.5078125 104.02734375 C70.5078125 99.40734375 70.5078125 94.78734375 70.5078125 90.02734375 C72.5084375 89.49109375 74.5090625 88.95484375 76.5703125 88.40234375 C98.28355276 82.28007359 116.96747111 71.65073747 131.5078125 54.02734375 C110.80524707 60.55636201 92.74992207 71.87787921 76.26953125 85.91796875 C74.5078125 87.02734375 74.5078125 87.02734375 70.5078125 87.02734375 C69.90747168 84.14570782 69.70857897 82.79554996 70.5078125 80.02734375 C73.33019352 76.72395543 76.91803878 74.42279005 80.5078125 72.02734375 C81.18908203 71.56634277 81.87035156 71.1053418 82.57226562 70.63037109 C97.88451407 60.35857189 113.19563246 52.72983501 130.81787109 47.28393555 C131.67461426 47.01621338 132.53135742 46.74849121 133.4140625 46.47265625 C134.18041016 46.24078613 134.94675781 46.00891602 135.73632812 45.77001953 C137.70833536 45.16959873 137.70833536 45.16959873 138.5078125 43.02734375 C116.9012942 42.08792991 92.41906533 52.35442095 73.6875 62.36328125 C68.08734195 65.2940765 68.08734195 65.2940765 65.5078125 66.02734375 C62.80581888 65.11796872 60.90859922 63.62786823 58.5078125 62.02734375 C60.86557648 59.3434393 63.13624211 58.12663358 66.41796875 56.7578125 C67.39822021 56.34684326 68.37847168 55.93587402 69.38842773 55.51245117 C70.43844971 55.08424072 71.48847168 54.65603027 72.5703125 54.21484375 C73.65578369 53.77052002 74.74125488 53.32619629 75.85961914 52.8684082 C89.24850174 47.44752428 102.27968421 43.08255276 116.4453125 40.15234375 C117.4758374 39.93666748 118.5063623 39.72099121 119.56811523 39.4987793 C126.28734508 38.19327014 132.66928824 37.76960407 139.5078125 38.02734375 C139.5078125 37.36734375 139.5078125 36.70734375 139.5078125 36.02734375 C111.70580809 36.57951861 81.17328197 40.09167529 55.703125 52.05078125 C53.42031027 53.06626823 51.12620117 53.85793125 48.7578125 54.65234375 C34.11325922 59.90460969 20.26187278 67.15309004 7.5078125 76.02734375 C9.01886524 77.0215374 10.54225116 77.99699566 12.0703125 78.96484375 C12.91722656 79.51011719 13.76414062 80.05539062 14.63671875 80.6171875 C18.25543435 82.39454305 20.43740888 83.12931628 24.5078125 83.02734375 C27.91167835 81.26021922 30.82439284 78.97046451 33.8203125 76.58984375 C35.41779711 75.35836993 37.01792654 74.13031689 38.62109375 72.90625 C39.32016846 72.35525635 40.01924316 71.8042627 40.73950195 71.23657227 C42.5078125 70.02734375 42.5078125 70.02734375 44.5078125 70.02734375 C45.38463922 74.9375734 45.38463922 74.9375734 44.5078125 78.02734375 C41.53219828 81.21858219 38.21877028 83.73993371 34.5078125 86.02734375 C33.8478125 86.02734375 33.1878125 86.02734375 32.5078125 86.02734375 C32.5078125 86.68734375 32.5078125 87.34734375 32.5078125 88.02734375 C33.21808594 88.08792969 33.92835938 88.14851563 34.66015625 88.2109375 C36.03880859 88.33662109 36.03880859 88.33662109 37.4453125 88.46484375 C38.82009766 88.58666016 38.82009766 88.58666016 40.22265625 88.7109375 C42.5078125 89.02734375 42.5078125 89.02734375 43.5078125 90.02734375 C43.58052991 92.3804793 43.59152118 94.73568043 43.5703125 97.08984375 C43.56128906 98.38019531 43.55226563 99.67054688 43.54296875 101 C43.53136719 101.99902344 43.51976562 102.99804688 43.5078125 104.02734375 C21.97761137 102.30633257 0.44428802 92.59922809 -15.4921875 78.02734375 C-16.02553711 77.54168945 -16.55888672 77.05603516 -17.10839844 76.55566406 C-36.38313507 58.78592638 -49.82000167 35.26414514 -53.4921875 9.02734375 C-53.4921875 7.70734375 -53.4921875 6.38734375 -53.4921875 5.02734375 C-48.8721875 5.02734375 -44.2521875 5.02734375 -39.4921875 5.02734375 C-39.1621875 7.11046875 -38.8321875 9.19359375 -38.4921875 11.33984375 C-36.72267852 21.14619748 -32.58201443 30.00252375 -28.4921875 39.02734375 C-22.20695349 37.82049206 -16.07915142 36.42175587 -9.9375 34.61328125 C-7.4921875 34.02734375 -7.4921875 34.02734375 -3.4921875 34.02734375 C-3.8221875 26.76734375 -4.1521875 19.50734375 -4.4921875 12.02734375 C-5.4821875 13.01734375 -6.4721875 14.00734375 -7.4921875 15.02734375 C-10.1796875 14.71484375 -10.1796875 14.71484375 -12.4921875 14.02734375 C-12.00710618 9.48374873 -10.42610183 7.36788637 -7.2421875 4.15234375 C-6.08976562 2.94964844 -6.08976562 2.94964844 -4.9140625 1.72265625 C-2.4921875 0.02734375 -2.4921875 0.02734375 0 0 Z " fill="#1F2F6B" transform="translate(133.4921875,178.97265625)"/>
<path d="M0 0 C10.76082618 6.28131947 16.29197324 14.06341971 20.25 25.9375 C22.3888229 46.34798136 11.1217361 63.42352313 -0.75 78.9375 C-1.85838755 80.4008034 -2.96643329 81.86436574 -4.07421875 83.328125 C-6.37553812 86.35904596 -8.67824474 89.38885851 -10.9921875 92.41015625 C-11.4754248 93.04187744 -11.95866211 93.67359863 -12.45654297 94.32446289 C-13.75 95.9375 -13.75 95.9375 -15.75 97.9375 C-16.74 97.9375 -17.73 97.9375 -18.75 97.9375 C-20.51769346 96.02198548 -22.06615887 94.13964951 -23.625 92.0625 C-24.10042236 91.43972168 -24.57584473 90.81694336 -25.06567383 90.17529297 C-26.0951376 88.81877994 -27.11908304 87.45806569 -28.13818359 86.09375 C-29.2203714 84.64602466 -30.30935518 83.20335664 -31.40478516 81.765625 C-39.0910597 71.66941809 -45.68269299 61.59480233 -50.75 49.9375 C-51.17285278 48.98230469 -51.17285278 48.98230469 -51.60424805 48.0078125 C-53.66539349 43.02921215 -54.3299519 38.56094154 -54.3125 33.1875 C-54.31008301 32.4039917 -54.30766602 31.6204834 -54.30517578 30.81323242 C-54.07508254 23.48408587 -51.89459531 18.00159683 -47.75 11.9375 C-47.29367188 11.25300781 -46.83734375 10.56851563 -46.3671875 9.86328125 C-35.95225407 -3.85467393 -15.09750288 -7.76621375 0 0 Z " fill="#182A69" transform="translate(206.75,115.0625)"/>
<path d="M0 0 C0 4.62 0 9.24 0 14 C-1.17433594 14.1959375 -2.34867187 14.391875 -3.55859375 14.59375 C-28.24823415 19.0423804 -50.73073955 31.86565069 -65.6015625 52.484375 C-74.77382016 65.92854059 -80.93120926 80.81836947 -83 97 C-87.62 97 -92.24 97 -97 97 C-98.74395244 75.63658259 -84.72206262 52.94579977 -71.5625 37.1875 C-54.21433735 17.08375903 -27.32970862 0 0 0 Z " fill="#1B2D6A" transform="translate(177,60)"/>
<path d="M0 0 C30.19913127 2.18834285 55.07065729 19.02070846 74.6875 41.12109375 C78.68552275 46.09836194 81.88301139 51.44069564 85 57 C85.53367187 57.8971875 86.06734375 58.794375 86.6171875 59.71875 C90.27125888 66.30743829 92.37810405 73.14940521 94.375 80.375 C94.63812988 81.32689209 94.90125977 82.27878418 95.17236328 83.25952148 C96.46575246 88.18301137 97 91.7710923 97 97 C92.38 97 87.76 97 83 97 C82.731875 95.6696875 82.46375 94.339375 82.1875 92.96875 C76.78422783 67.5667526 64.44535737 46.40166575 43 31 C29.49139296 22.33859901 15.82961772 16.68804829 0 14 C0 9.38 0 4.76 0 0 Z " fill="#1C2D6A" transform="translate(203,60)"/>
<path d="M0 0 C4.33483214 2.69686122 7.04056918 6.61249995 9.046875 11.2734375 C10.08145209 17.67337947 8.79195782 23.01194078 5.046875 28.2734375 C1.55456701 31.95249993 -2.38794206 34.89503318 -7.46875 35.64453125 C-14.26094313 35.80948451 -18.83656275 34.9073052 -23.953125 30.2734375 C-28.73983772 24.13662633 -29.76558237 18.88732367 -28.953125 11.2734375 C-27.11287787 5.59749454 -22.76630373 1.60134298 -17.953125 -1.7265625 C-11.38744087 -3.91512388 -6.08111983 -2.9566824 0 0 Z " fill="#F9F9FA" transform="translate(199.953125,131.7265625)"/>
<path d="M0 0 C1.65 0 3.3 0 5 0 C6.2452739 31.47146764 -10.17938635 64.40377104 -30.6875 87.3125 C-31.43644531 88.12203125 -32.18539062 88.9315625 -32.95703125 89.765625 C-34.67953173 91.64950698 -36.28116367 93.57134631 -37.875 95.5625 C-41.97731774 100.37679024 -47.02169776 104.13913926 -52 108 C-52.8559375 108.67160156 -53.711875 109.34320313 -54.59375 110.03515625 C-74.44549897 125.07345404 -103.41994737 139.72976126 -129 139 C-129 137.35 -129 135.7 -129 134 C-128.41323486 133.89042969 -127.82646973 133.78085937 -127.22192383 133.66796875 C-84.67889808 125.54014867 -48.50892256 104.57895145 -23.86328125 68.43359375 C-16.79331689 57.7247115 -11.86601329 46.02776219 -7.67260742 33.93774414 C-7.20967265 32.6040551 -6.73240785 31.27528206 -6.2434082 29.95092773 C-4.01977378 23.72292927 -2.8690575 17.45362308 -1.8125 10.9375 C-1.63525391 9.88111328 -1.45800781 8.82472656 -1.27539062 7.73632812 C-0.84381691 5.15854998 -0.41883345 2.57987326 0 0 Z " fill="#263772" transform="translate(333,184)"/>
<path d="M0 0 C1.65 0 3.3 0 5 0 C5.12004395 0.69859131 5.24008789 1.39718262 5.36376953 2.11694336 C7.82274668 16.20112246 10.40378643 29.80174993 16 43 C16.29245605 43.69883301 16.58491211 44.39766602 16.88623047 45.11767578 C32.26006858 81.24497454 60.72851951 108.07404747 96.7578125 123.15429688 C109.221431 128.03254989 121.73543276 130.50399618 135 132 C135 133.98 135 135.96 135 138 C98.76063582 137.28432135 63.66249186 116.7905442 39.01953125 91.265625 C16.34698565 65.83027403 1.67635268 34.27852199 0 0 Z " fill="#26346D" transform="translate(42,185)"/>
<path d="M0 0 C1.65 0 3.3 0 5 0 C6.52882459 28.53805899 -9.13508483 56.4566887 -27.5 77.125 C-28.99604712 78.75363993 -30.49571972 80.3789615 -32 82 C-32.52851563 82.59425781 -33.05703125 83.18851562 -33.6015625 83.80078125 C-50.89037625 102.37517346 -78.11880732 115.08764694 -103 119 C-104.99956309 119.04180271 -107.00071073 119.05331438 -109 119 C-109 117.35 -109 115.7 -109 114 C-108.29617187 113.82460693 -107.59234375 113.64921387 -106.8671875 113.46850586 C-69.75060022 104.11970487 -38.23589127 87.68127179 -17.79248047 54.01123047 C-7.92895562 37.22761997 -2.63630692 19.22811011 0 0 Z " fill="#283770" transform="translate(313,184)"/>
<path d="M0 0 C1.32 0 2.64 0 4 0 C4.11480713 0.53665283 4.22961426 1.07330566 4.34790039 1.6262207 C12.2208189 37.85241487 27.5392675 70.59895144 59.328125 91.6953125 C75.26678301 101.84825485 92.85999512 109.6230251 111.796875 111.7109375 C114 112 114 112 115 113 C115.04063832 114.66617115 115.042721 116.33388095 115 118 C84.78374222 115.90580392 58.50821398 101.73230439 37 81 C35.92298828 80.01773438 35.92298828 80.01773438 34.82421875 79.015625 C19.73427115 64.86312905 7.16741416 42.50680661 2.8125 22.3125 C2.5659668 21.23258789 2.5659668 21.23258789 2.31445312 20.13085938 C0.78248006 13.32691422 -0.12033321 6.97932611 0 0 Z " fill="#26336D" transform="translate(62,185)"/>
<path d="M0 0 C1.66423035 1.10925293 1.66423035 1.10925293 3 3 C3.3742218 5.96008301 3.3742218 5.96008301 3.37231445 9.62695312 C3.37596512 10.2955687 3.37961578 10.96418427 3.38337708 11.65306091 C3.39148166 13.86271584 3.37787409 16.07163718 3.36328125 18.28125 C3.36276263 19.81677246 3.36328041 21.35229558 3.36479187 22.88781738 C3.36470215 26.10581373 3.35427367 29.32355953 3.33618164 32.54150391 C3.31349435 36.66764085 3.31295036 40.79341166 3.31969929 44.91959381 C3.32303982 48.09030413 3.31640762 51.26093089 3.30657005 54.43162537 C3.3027192 55.95307478 3.30156936 57.47453348 3.3031559 58.99598694 C3.30352652 61.12185393 3.2909079 63.24725051 3.2746582 65.37304688 C3.27005081 66.58311401 3.26544342 67.79318115 3.26069641 69.03991699 C3 72 3 72 1 75 C-2.4375 75.4375 -2.4375 75.4375 -6 75 C-8.42068849 72.7027317 -8.96430018 71.2851081 -9.38095093 67.95762634 C-9.38333771 66.76754471 -9.38572449 65.57746307 -9.38818359 64.35131836 C-9.39344055 63.69231033 -9.39869751 63.03330231 -9.40411377 62.35432434 C-9.41728538 60.18258759 -9.40858747 58.01158755 -9.3984375 55.83984375 C-9.40045883 54.32816935 -9.40337076 52.8164959 -9.40713501 51.30482483 C-9.41155428 48.1398895 -9.40513941 44.97520847 -9.39111328 41.81030273 C-9.37400669 37.75247723 -9.38387396 33.69524637 -9.40183067 29.63744259 C-9.4126669 26.5173341 -9.40922323 23.39736682 -9.4014473 20.2772541 C-9.39944559 18.78091931 -9.40190356 17.28457172 -9.40888596 15.78825188 C-9.41649976 13.69825091 -9.40489957 11.60921605 -9.38818359 9.51928711 C-9.38579681 8.33000107 -9.38341003 7.14071503 -9.38095093 5.91539001 C-9 3 -9 3 -7.66323853 1.11598206 C-5.05875419 -0.63154708 -3.04584374 -0.38073047 0 0 Z " fill="#1C2D67" transform="translate(193,248)"/>
<path d="M0 0 C0.66861557 -0.00525696 1.33723114 -0.01051392 2.02610779 -0.01593018 C4.23574195 -0.02913166 6.44465542 -0.02039222 8.65429688 -0.01025391 C10.18982074 -0.01227462 11.72534368 -0.01518603 13.26086426 -0.01895142 C16.47885272 -0.02337494 19.69659136 -0.016943 22.91455078 -0.00292969 C27.04078303 0.01416248 31.16642991 0.00432141 35.29264069 -0.01364708 C38.46336279 -0.02448429 41.63394597 -0.02103892 44.80467224 -0.0132637 C46.3261268 -0.01126151 47.84759395 -0.01372167 49.36903381 -0.02070236 C51.49506066 -0.02831613 53.62013771 -0.01671523 55.74609375 0 C57.56119446 0.00358017 57.56119446 0.00358017 59.41296387 0.00723267 C62.37304688 0.38818359 62.37304688 0.38818359 64.2989502 1.68978882 C65.37304688 3.38818359 65.37304688 3.38818359 65.18554688 6.95068359 C64.37304688 10.38818359 64.37304688 10.38818359 62.37304688 12.38818359 C59.53321838 12.65560913 59.53321838 12.65560913 55.85961914 12.67871094 C54.85691483 12.68878677 54.85691483 12.68878677 53.83395386 12.69906616 C51.61904516 12.71810045 49.40443857 12.72197296 47.18945312 12.72412109 C45.65250014 12.73054507 44.1155484 12.73727313 42.57859802 12.74429321 C39.35469731 12.75627941 36.13090386 12.75997265 32.90698242 12.75878906 C28.7727936 12.75858575 24.63929126 12.78589392 20.50526524 12.82033348 C17.33026461 12.84255438 14.15543047 12.84662811 10.98036003 12.84556961 C9.456091 12.84793261 7.93181787 12.85679539 6.4076252 12.87223434 C4.27654869 12.89179959 2.14696899 12.88609575 0.01586914 12.87402344 C-1.1972142 12.87687347 -2.41029755 12.87972351 -3.66014099 12.88265991 C-6.62695312 12.38818359 -6.62695312 12.38818359 -8.51869202 10.51797485 C-9.89202427 7.8787854 -10.07871742 6.32465153 -9.62695312 3.38818359 C-7.08749832 -0.33904692 -4.26852335 0.00841939 0 0 Z " fill="#1E2F6B" transform="translate(273.626953125,163.61181640625)"/>
<path d="M0 0 C1.66323853 1.12072754 1.66323853 1.12072754 3 3 C3.38095093 5.88415527 3.38095093 5.88415527 3.38818359 9.44335938 C3.39344055 10.0924678 3.39869751 10.74157623 3.40411377 11.41035461 C3.41731296 13.55506484 3.40857672 15.69903228 3.3984375 17.84375 C3.40045828 19.33443342 3.40336975 20.82511587 3.40713501 22.3157959 C3.41155822 25.43963027 3.40512765 28.56320726 3.39111328 31.68701172 C3.37402108 35.69218177 3.38386232 39.69674875 3.40183067 43.70189667 C3.41266876 46.77997384 3.40922213 49.85790791 3.4014473 52.93598938 C3.39944534 54.41278657 3.40190442 55.88959674 3.40888596 57.36637878 C3.41650123 59.43014969 3.40489694 61.49294261 3.38818359 63.55664062 C3.38579681 64.73117798 3.38341003 65.90571533 3.38095093 67.11584473 C3 70 3 70 1.66323853 71.87927246 C-0.94010582 73.63346445 -2.95183558 73.38102055 -6 73 C-7.66323853 71.87927246 -7.66323853 71.87927246 -9 70 C-9.38095093 67.11584473 -9.38095093 67.11584473 -9.38818359 63.55664062 C-9.39344055 62.9075322 -9.39869751 62.25842377 -9.40411377 61.58964539 C-9.41731296 59.44493516 -9.40857672 57.30096772 -9.3984375 55.15625 C-9.40045828 53.66556658 -9.40336975 52.17488413 -9.40713501 50.6842041 C-9.41155822 47.56036973 -9.40512765 44.43679274 -9.39111328 41.31298828 C-9.37402108 37.30781823 -9.38386232 33.30325125 -9.40183067 29.29810333 C-9.41266876 26.22002616 -9.40922213 23.14209209 -9.4014473 20.06401062 C-9.39944534 18.58721343 -9.40190442 17.11040326 -9.40888596 15.63362122 C-9.41650123 13.56985031 -9.40489694 11.50705739 -9.38818359 9.44335938 C-9.38579681 8.26882202 -9.38341003 7.09428467 -9.38095093 5.88415527 C-9 3 -9 3 -7.66323853 1.12072754 C-5.05989418 -0.63346445 -3.04816442 -0.38102055 0 0 Z " fill="#1D2D68" transform="translate(193,26)"/>
<path d="M0 0 C1.30823227 -0.01268417 2.61646454 -0.02536835 3.96434021 -0.03843689 C5.39427854 -0.03638538 6.82421579 -0.0333973 8.25415039 -0.02954102 C9.72001895 -0.03410174 11.18588536 -0.03940699 12.65174866 -0.04542542 C15.72430099 -0.05436212 18.79659349 -0.05192751 21.86914062 -0.04199219 C25.80484005 -0.0305054 29.73964187 -0.05070546 33.67522335 -0.07990932 C36.70274037 -0.09826523 39.73004208 -0.09798011 42.75760078 -0.0922718 C44.20846376 -0.09211849 45.65934123 -0.09817118 47.11015129 -0.11056328 C49.13979037 -0.12545575 51.16957697 -0.11217523 53.19921875 -0.09765625 C54.3537706 -0.09749008 55.50832245 -0.09732391 56.69786072 -0.09715271 C60.300446 0.51153371 61.52148372 1.48426375 63.66430664 4.40405273 C63.51636662 8.10255314 63.30625091 9.76210847 60.66430664 12.40405273 C57.85571289 12.66474915 57.85571289 12.66474915 54.22680664 12.67871094 C53.23632324 12.68637733 53.23632324 12.68637733 52.22583008 12.69419861 C50.03856395 12.70812276 47.85161187 12.70713597 45.66430664 12.70483398 C44.14737836 12.70871903 42.63045116 12.7130533 41.11352539 12.71781921 C37.93249995 12.72528723 34.75158548 12.72498573 31.57055664 12.71972656 C27.48794251 12.71392739 23.40578138 12.73087048 19.32324219 12.75407124 C16.19032115 12.76877987 13.05750999 12.76968429 9.92456055 12.76656151 C8.41901755 12.76707605 6.91346862 12.77233861 5.40795898 12.78237343 C3.30560574 12.79466731 1.20414487 12.7879902 -0.89819336 12.77636719 C-2.09573242 12.77699661 -3.29327148 12.77762604 -4.52709961 12.77827454 C-5.45393555 12.65478134 -6.38077148 12.53128815 -7.33569336 12.40405273 C-9.64851923 8.93481393 -9.76047922 7.48199698 -9.33569336 3.40405273 C-6.86800426 -0.24679195 -4.18069745 0.019578 0 0 Z " fill="#20326C" transform="translate(51.335693359375,163.595947265625)"/>
<path d="M0 0 C-14.89174462 17.40097632 -35.33721913 32.68014237 -58.75 35.75 C-59.8225 35.8325 -60.895 35.915 -62 36 C-62 40.62 -62 45.24 -62 50 C-62.33 50 -62.66 50 -63 50 C-63 42.41 -63 34.82 -63 27 C-62.67 27 -62.34 27 -62 27 C-62 28.98 -62 30.96 -62 33 C-56.64815191 30.96087813 -52.74387788 28.47348993 -48.375 24.8125 C-40.86745447 18.73649073 -10.61641498 -5.30820749 0 0 Z " fill="#F3F4F6" transform="translate(266,233)"/>
<path d="M0 0 C-0.33 0.66 -0.66 1.32 -1 2 C-3.52212249 2.62358475 -6.01270014 3.14194569 -8.5625 3.625 C-25.13197108 7.06820378 -41.09442887 12.5792136 -56.20092773 20.20581055 C-61.73937738 23 -61.73937738 23 -65 23 C-66.60546875 21.3203125 -66.60546875 21.3203125 -68.1875 19.125 C-68.71730469 18.40570313 -69.24710937 17.68640625 -69.79296875 16.9453125 C-71 15 -71 15 -71 13 C-63.33992884 10.01292289 -55.71482347 7.76257843 -47.6875 6 C-46.54410156 5.74726318 -45.40070313 5.49452637 -44.22265625 5.23413086 C-35.03030302 3.27914267 -25.80958322 1.81039625 -16.5 0.5625 C-15.20022217 0.38654297 -13.90044434 0.21058594 -12.5612793 0.02929688 C-3.39477933 -1.13159311 -3.39477933 -1.13159311 0 0 Z " fill="#F2F2F5" transform="translate(180,211)"/>
<path d="M0 0 C-0.33 1.65 -0.66 3.3 -1 5 C-1.54599854 5.10957031 -2.09199707 5.21914062 -2.65454102 5.33203125 C-22.26026014 9.34159742 -41.11130099 14.87345964 -58.8203125 24.3359375 C-64.42047055 27.26673275 -64.42047055 27.26673275 -67 28 C-69.70199362 27.09062497 -71.59921328 25.60052448 -74 24 C-71.64223602 21.31609555 -69.37157039 20.09928983 -66.08984375 18.73046875 C-65.10959229 18.31949951 -64.12934082 17.90853027 -63.11938477 17.48510742 C-61.54435181 16.84279175 -61.54435181 16.84279175 -59.9375 16.1875 C-58.30929321 15.5210144 -58.30929321 15.5210144 -56.64819336 14.84106445 C-38.99617872 7.69412582 -19.29282194 0 0 0 Z " fill="#293770" transform="translate(266,217)"/>
<path d="M0 0 C5.16474329 0.55336535 9.0650129 3.12806713 13.5 5.625 C29.90170655 14.50149854 46.54091178 18.91814795 65 21 C65 22.98 65 24.96 65 27 C43.25989903 26.57066228 13.43878827 18.35361838 -2.87109375 3.26953125 C-3.24363281 2.85058594 -3.61617188 2.43164062 -4 2 C-2.68 2 -1.36 2 0 2 C0 1.34 0 0.68 0 0 Z " fill="#2D3E74" transform="translate(112,296)"/>
<path d="M0 0 C3.68693426 1.3400588 7.00767598 3.09057608 10.41699219 5.02124023 C23.84043949 12.53692328 38.44068369 18.01781897 53.796875 19.7109375 C56 20 56 20 57 21 C57.04063832 22.66617115 57.042721 24.33388095 57 26 C35.89929518 24.53757491 15.41664347 16.99222322 -2 5 C-1.01 4.34 -0.02 3.68 1 3 C0.67 2.01 0.34 1.02 0 0 Z " fill="#2B3A74" transform="translate(120,277)"/>
<path d="M0 0 C1.47923357 0.00268433 2.95848011 0.01768366 4.4375 0.04296875 C5.20118896 0.04941406 5.96487793 0.05585938 6.75170898 0.0625 C12.36201891 0.13849954 17.86850123 0.5232943 23.4375 1.23046875 C23.4375 2.22046875 23.4375 3.21046875 23.4375 4.23046875 C24.9225 5.22046875 24.9225 5.22046875 26.4375 6.23046875 C15.09862404 6.83512303 3.79608317 7.42012969 -7.5625 7.23046875 C-5.01824933 0.32464552 -5.01824933 0.32464552 0 0 Z " fill="#2F3E77" transform="translate(208.5625,204.76953125)"/>
<path d="M0 0 C0.97646484 0.00322266 1.95292969 0.00644531 2.95898438 0.00976562 C3.96638672 0.01814453 4.97378906 0.02652344 6.01171875 0.03515625 C7.03845703 0.03966797 8.06519531 0.04417969 9.12304688 0.04882812 C11.64849757 0.06057441 14.1738278 0.0770006 16.69921875 0.09765625 C16.69921875 0.75765625 16.69921875 1.41765625 16.69921875 2.09765625 C15.55324219 2.23042969 14.40726562 2.36320313 13.2265625 2.5 C11.69660907 2.67833813 10.16666146 2.85672621 8.63671875 3.03515625 C7.88455078 3.12216797 7.13238281 3.20917969 6.35742188 3.29882812 C1.79333656 3.83229264 -2.75471659 4.42751923 -7.30078125 5.09765625 C-6.97078125 4.10765625 -6.64078125 3.11765625 -6.30078125 2.09765625 C-7.62078125 1.76765625 -8.94078125 1.43765625 -10.30078125 1.09765625 C-6.80085429 0.30058857 -3.58655815 -0.02097402 0 0 Z " fill="#BEC3D4" transform="translate(256.30078125,214.90234375)"/>
<path d="M0 0 C1.35200437 4.05601311 0.52469124 6.0496636 -1 10 C-3.625 12.4375 -3.625 12.4375 -6 14 C-6 11 -6 11 -4 9 C-4.99 8.34 -5.98 7.68 -7 7 C-4.69 4.69 -2.38 2.38 0 0 Z " fill="#30417C" transform="translate(280,258)"/>
<path d="M0 0 C-0.33 0.66 -0.66 1.32 -1 2 C-3.5315866 2.63801836 -5.99839502 3.16687368 -8.5625 3.625 C-9.27341797 3.7590625 -9.98433594 3.893125 -10.71679688 4.03125 C-12.47642553 4.36191847 -14.23804548 4.68195767 -16 5 C-16 3.66666667 -16 2.33333333 -16 1 C-13.8973294 0.63705686 -11.79278943 0.28493028 -9.6875 -0.0625 C-8.51574219 -0.25972656 -7.34398437 -0.45695313 -6.13671875 -0.66015625 C-3 -1 -3 -1 0 0 Z " fill="#C4C9D3" transform="translate(180,211)"/>
<path d="M0 0 C1.32 0 2.64 0 4 0 C4.33 2.64 4.66 5.28 5 8 C3.02 8.99 3.02 8.99 1 10 C-0.60725635 6.78548731 -0.05748185 3.56387464 0 0 Z " fill="#1F2C65" transform="translate(62,185)"/>
<path d="M0 0 C0.33 0 0.66 0 1 0 C1 1.98 1 3.96 1 6 C2.32 6 3.64 6 5 6 C4.67 6.99 4.34 7.98 4 9 C3.01 9 2.02 9 1 9 C1 13.62 1 18.24 1 23 C0.67 23 0.34 23 0 23 C0 15.41 0 7.82 0 0 Z " fill="#A0AAC3" transform="translate(203,260)"/>
<path d="M0 0 C0.66 0.33 1.32 0.66 2 1 C0.515 2.485 0.515 2.485 -1 4 C0.32 4.66 1.64 5.32 3 6 C0.36 6.33 -2.28 6.66 -5 7 C-5 6.01 -5 5.02 -5 4 C-2.5 1.8125 -2.5 1.8125 0 0 Z " fill="#D3D7E2" transform="translate(213,261)"/>
<path d="M0 0 C0 3 0 3 -1.53125 4.82421875 C-2.1809375 5.43910156 -2.830625 6.05398438 -3.5 6.6875 C-4.1496875 7.31011719 -4.799375 7.93273437 -5.46875 8.57421875 C-5.9740625 9.04472656 -6.479375 9.51523437 -7 10 C-7.99 9.67 -8.98 9.34 -10 9 C-6.7 6.03 -3.4 3.06 0 0 Z " fill="#DFE0E3" transform="translate(265,253)"/>
<path d="M0 0 C0.33 0.66 0.66 1.32 1 2 C1.66 2 2.32 2 3 2 C3.33 1.34 3.66 0.68 4 0 C4.66 0 5.32 0 6 0 C5.67 1.32 5.34 2.64 5 4 C3.68 4.33 2.36 4.66 1 5 C0.34 3.68 -0.32 2.36 -1 1 C-0.67 0.67 -0.34 0.34 0 0 Z " fill="#2B3F74" transform="translate(139,189)"/>
<path d="M0 0 C0.99 0.495 0.99 0.495 2 1 C1.01 1.495 1.01 1.495 0 2 C0 1.34 0 0.68 0 0 Z M-1 2 C-0.34 2.66 0.32 3.32 1 4 C-0.8125 5.5625 -0.8125 5.5625 -3 7 C-3.99 6.67 -4.98 6.34 -6 6 C-5.67 5.01 -5.34 4.02 -5 3 C-3.0625 2.1875 -3.0625 2.1875 -1 2 Z " fill="#182969" transform="translate(304,263)"/>
<path d="M0 0 C2.64 0 5.28 0 8 0 C7.25 1.9375 7.25 1.9375 6 4 C3.875 4.75 3.875 4.75 2 5 C2 4.34 2 3.68 2 3 C2.66 3 3.32 3 4 3 C4 2.34 4 1.68 4 1 C2.68 0.67 1.36 0.34 0 0 Z " fill="#D7DAE8" transform="translate(265,221)"/>
</svg>
